<svg width="23" height="22" viewBox="0 0 23 22" fill="none" xmlns="http://www.w3.org/2000/svg">
<path d="M6.19502 13.8435C5.89671 13.8636 5.5975 13.8198 5.31836 13.7151C5.03923 13.6105 4.78693 13.4476 4.57915 13.2377C4.17962 12.747 3.98168 12.1287 4.02392 11.5033C3.97988 10.8626 4.18571 10.2294 4.60014 9.73051C4.81623 9.51547 5.07747 9.34862 5.3659 9.24141C5.65434 9.13421 5.96314 9.08918 6.27109 9.10943C6.72949 9.1012 7.18404 9.19241 7.60191 9.37646L7.29937 10.1562C6.97006 10.017 6.61807 9.93587 6.25973 9.91649C5.44917 9.91649 5.04695 10.4403 5.04695 11.4871C5.01789 11.894 5.12365 12.2993 5.34861 12.6431C5.45372 12.773 5.58952 12.8761 5.7444 12.9435C5.89927 13.011 6.0686 13.0408 6.23787 13.0304C6.67826 13.0297 7.11113 12.919 7.49524 12.7088V13.5542C7.31832 13.656 7.12585 13.7294 6.92514 13.7718C6.68502 13.8243 6.43929 13.8484 6.19327 13.8435H6.19502Z" fill="#96CA4B"/>
<path d="M10.2416 13.7615H9.24658V7.3364H10.2416V13.7615Z" fill="#96CA4B"/>
<path d="M11.8348 15.7904C11.5827 15.798 11.3312 15.7628 11.0916 15.6864V14.9185C11.283 14.9683 11.4802 14.9939 11.6783 14.9945C12.1032 14.9945 12.3157 14.7601 12.3157 14.2915V9.1913H13.3107V14.3554C13.3249 14.5495 13.2984 14.7443 13.233 14.928C13.1677 15.1118 13.0647 15.2807 12.9304 15.4244C12.7818 15.5534 12.6084 15.6522 12.4203 15.715C12.2322 15.7778 12.0332 15.8035 11.8348 15.7904Z" fill="#5F7FBF"/>
<path d="M12.2537 7.9882C12.2491 7.9156 12.2597 7.84284 12.2848 7.77435C12.3099 7.70585 12.349 7.64306 12.3998 7.58977C12.4562 7.53986 12.5224 7.5016 12.5944 7.47726C12.6663 7.45292 12.7426 7.44302 12.8186 7.44814C12.8932 7.44066 12.9685 7.44948 13.0391 7.47398C13.1098 7.49847 13.1739 7.53802 13.2269 7.58974C13.28 7.64147 13.3205 7.70407 13.3456 7.77299C13.3707 7.84192 13.3797 7.91544 13.3721 7.9882C13.3783 8.13252 13.3261 8.27345 13.2269 8.38066C13.1719 8.42957 13.1075 8.46729 13.0374 8.49161C12.9673 8.51593 12.8929 8.52636 12.8186 8.52229C12.6653 8.53061 12.5149 8.47973 12.3998 8.38066C12.3491 8.32851 12.3101 8.26675 12.2849 8.19924C12.2598 8.13172 12.2492 8.05989 12.2537 7.9882Z" fill="#5F7FBF"/>
<path d="M18.5203 12.4631C18.5301 12.6605 18.4898 12.8572 18.4031 13.0358C18.3163 13.2144 18.1857 13.3693 18.0228 13.4869C17.5961 13.7497 17.095 13.874 16.5914 13.8418C16.0749 13.8627 15.5603 13.7675 15.0875 13.5636V12.7233C15.5666 12.9534 16.0909 13.08 16.6247 13.0944C17.2367 13.0944 17.5419 12.9144 17.5419 12.5543C17.5451 12.4493 17.5094 12.3466 17.4413 12.2651C17.3446 12.1667 17.231 12.0855 17.1056 12.0254C16.8958 11.9195 16.6794 11.8266 16.4576 11.7472C16.0525 11.6209 15.6792 11.4128 15.362 11.1364C15.1664 10.9183 15.0643 10.6351 15.077 10.3455C15.0715 10.166 15.1135 9.98825 15.1992 9.82935C15.2848 9.67045 15.4111 9.53584 15.5658 9.43858C15.9617 9.20339 16.4216 9.09121 16.8844 9.11694C17.4225 9.11487 17.9547 9.22664 18.4443 9.44455L18.1199 10.1749C17.7187 9.9957 17.2865 9.89207 16.8459 9.86943C16.3212 9.86943 16.0589 10.017 16.0589 10.3063C16.0603 10.379 16.0799 10.4503 16.116 10.514C16.1521 10.5776 16.2037 10.6317 16.2662 10.6714C16.5483 10.8388 16.8482 10.9758 17.1607 11.0801C17.4556 11.1834 17.7384 11.3169 18.0044 11.4785C18.1656 11.588 18.2995 11.7315 18.3962 11.8983C18.4858 12.0743 18.53 12.2691 18.5247 12.4656L18.5203 12.4631Z" fill="#5F7FBF"/>
<path d="M10.4016 1.44022L10.5546 1.42657V0.003479L10.3736 0.0179828C7.54701 0.243592 4.91081 1.49856 2.98889 3.5335C1.06697 5.56845 0 8.23443 0 11.0017C0 13.7689 1.06697 16.4349 2.98889 18.4699C4.91081 20.5048 7.54701 21.7598 10.3736 21.9854L10.5546 21.9999V20.5708L10.4016 20.558C7.95494 20.3438 5.67895 19.2441 4.02136 17.4751C2.36376 15.7062 1.44456 13.396 1.44456 10.9991C1.44456 8.60222 2.36376 6.29207 4.02136 4.5231C5.67895 2.75414 7.95494 1.6544 10.4016 1.44022Z" fill="#96CA4B"/>
<path d="M19.5574 3.51245C17.6388 1.48471 15.0082 0.235928 12.1889 0.0145037L12.0079 0V1.42648L12.161 1.44013C14.6083 1.65434 16.8849 2.75435 18.543 4.52377C20.2011 6.2932 21.1205 8.60395 21.1205 11.0015C21.1205 13.399 20.2011 15.7098 18.543 17.4792C16.8849 19.2486 14.6083 20.3486 12.161 20.5628L12.0079 20.5765V21.9995L12.1889 21.985C14.3019 21.819 16.3242 21.0758 18.0245 19.8406C19.7247 18.6055 21.0342 16.9281 21.8031 15.0006C22.5719 13.0732 22.7691 10.9734 22.3719 8.94173C21.9748 6.91004 20.9994 5.02849 19.5574 3.51245Z" fill="#5F7FBF"/>
</svg>
