<svg width="24" height="22" viewBox="0 0 24 22" fill="none" xmlns="http://www.w3.org/2000/svg">
<path d="M11.5545 0C5.18335 0 0 4.93465 0 11.0001C0 17.0656 5.18335 22.0002 11.5545 22.0002C17.9257 22.0002 23.109 17.0656 23.109 11.0001C23.109 4.93465 17.9257 0 11.5545 0ZM11.5545 19.8002C6.45781 19.8002 2.3109 15.8523 2.3109 11.0001C2.3109 6.14797 6.45781 2.20002 11.5545 2.20002C16.6512 2.20002 20.7981 6.14797 20.7981 11.0001C20.7981 15.8523 16.6512 19.8002 11.5545 19.8002Z" fill="black"/>
<path d="M14.8221 14.1111C14.1843 14.7198 13.3727 15.1368 12.488 15.31C11.8718 15.4277 11.2371 15.4277 10.6208 15.31C10.3245 15.2515 10.0347 15.166 9.75541 15.0548C9.48128 14.9434 9.21863 14.8078 8.97086 14.6501C8.47963 14.3312 8.05557 13.9275 7.72067 13.4599L5.80493 14.6886C6.05335 15.0394 6.33875 15.3694 6.65188 15.6664C7.29478 16.2806 8.05867 16.7679 8.89977 17.1005C9.74086 17.4331 10.6426 17.6044 11.5534 17.6046C12.4641 17.6048 13.366 17.4339 14.2073 17.1017C15.0485 16.7695 15.8126 16.2825 16.4559 15.6686C16.7701 15.3705 17.0567 15.0405 17.304 14.6886L15.3882 13.4599C15.223 13.692 15.0335 13.9109 14.8221 14.1111Z" fill="black"/>
<path d="M7.5104 11.0001C8.4676 11.0001 9.24357 10.2614 9.24357 9.35003C9.24357 8.43871 8.4676 7.69994 7.5104 7.69994C6.55319 7.69994 5.77722 8.43871 5.77722 9.35003C5.77722 10.2614 6.55319 11.0001 7.5104 11.0001Z" fill="black"/>
<path d="M15.5986 8.80051C13.2877 8.80051 12.71 11.0001 12.71 11.0001H18.4872C18.4872 11.0001 17.9083 8.80051 15.5986 8.80051Z" fill="black"/>
</svg>
