<svg width="22" height="22" viewBox="0 0 22 22" fill="none" xmlns="http://www.w3.org/2000/svg">
<path d="M11 0.5C8.9233 0.5 6.89323 1.11581 5.16652 2.26957C3.4398 3.42332 2.09399 5.0632 1.29927 6.98182C0.504549 8.90045 0.296614 11.0116 0.701759 13.0484C1.1069 15.0852 2.10693 16.9562 3.57538 18.4246C5.04383 19.8931 6.91476 20.8931 8.95156 21.2982C10.9884 21.7034 13.0996 21.4955 15.0182 20.7007C16.9368 19.906 18.5767 18.5602 19.7304 16.8335C20.8842 15.1068 21.5 13.0767 21.5 11C21.4968 8.2162 20.3896 5.54733 18.4211 3.57889C16.4527 1.61044 13.7838 0.503176 11 0.5Z" fill="white"/>
<path d="M10.616 11.189C10.5215 11.3937 10.4173 11.6232 10.3101 11.864C9.92123 12.7002 9.6002 13.5662 9.35005 14.4537C9.28794 14.7382 9.258 15.0288 9.2608 15.32C9.2608 15.4505 9.26755 15.587 9.2788 15.7265C10.3442 16.1191 11.5117 16.1368 12.5885 15.7767C12.4693 15.6693 12.3589 15.5525 12.2585 15.4272C11.5835 14.5677 11.2086 13.307 10.6131 11.1882" fill="#91DC47"/>
<path d="M8.12664 6.91699C7.47257 7.37538 6.93763 7.98358 6.56647 8.69081C6.19531 9.39804 5.9987 10.1838 5.99305 10.9825C5.98739 11.7812 6.17286 12.5696 6.53398 13.282C6.89509 13.9944 7.42137 14.6101 8.06889 15.0777C8.37714 13.7952 9.14889 12.6207 10.3061 10.2665C10.2371 10.0775 10.1561 9.87124 10.0714 9.65374C9.79115 8.87298 9.38586 8.14297 8.87139 7.49224C8.65002 7.2658 8.39748 7.0721 8.12139 6.91699" fill="#91DC47"/>
<path d="M15.38 16.775C14.8049 16.7175 14.2374 16.5991 13.6873 16.4217C12.3756 17.0748 10.8708 17.2277 9.45458 16.8517C8.03832 16.4758 6.80754 15.5967 5.99246 14.379C5.17738 13.1613 4.83384 11.6884 5.0261 10.2357C5.21835 8.78309 5.93324 7.45024 7.03703 6.4865C6.69341 6.40192 6.3409 6.35886 5.98703 6.35825C4.21853 6.37475 2.35103 7.3535 1.57403 9.99725C1.52038 10.3347 1.50178 10.6767 1.51853 11.018C1.5179 13.0346 2.15992 14.999 3.35142 16.626C4.54291 18.253 6.22187 19.458 8.14464 20.0661C10.0674 20.6742 12.1339 20.6538 14.0443 20.0077C15.9547 19.3617 17.6095 18.1238 18.7685 16.4735C17.9231 16.6899 17.0551 16.8055 16.1825 16.8177C15.9144 16.8197 15.6464 16.8054 15.38 16.775Z" fill="#63B132"/>
<path d="M13.5974 14.933C13.719 14.9853 13.8443 15.0284 13.9724 15.062C14.6081 14.5963 15.1253 13.9875 15.4819 13.2848C15.8385 12.5821 16.0246 11.8052 16.0251 11.0172C16.0261 10.2229 15.8383 9.43982 15.4772 8.73241C15.1161 8.02501 14.5919 7.41358 13.948 6.94857C13.3041 6.48355 12.5589 6.17826 11.7738 6.05789C10.9887 5.93751 10.1863 6.00548 9.43262 6.25621C10.4511 7.41721 10.9409 9.07696 11.4149 10.892C11.8889 12.707 11.5649 11.3967 11.8251 12.0635C12.0948 12.793 12.4372 13.4936 12.8474 14.1545C13.0287 14.4719 13.2865 14.739 13.5974 14.9315" fill="#90B4FE"/>
<path d="M11.0097 1.52901C9.50171 1.52817 8.01528 1.88732 6.67402 2.57661C5.33276 3.26589 4.17542 4.26539 3.29822 5.49202C4.0776 4.99459 4.98363 4.7319 5.90822 4.73527C6.739 4.731 7.55825 4.92976 8.29472 5.31427C8.39522 5.37201 8.49047 5.43427 8.58422 5.49877C9.5018 5.09536 10.5055 4.92711 11.5045 5.00925C12.5034 5.09138 13.4662 5.42131 14.3055 5.96918C15.1449 6.51704 15.8344 7.26555 16.3117 8.14698C16.789 9.0284 17.0389 10.0149 17.039 11.0173C17.0399 11.8155 16.8818 12.6059 16.5739 13.3423C16.266 14.0788 15.8145 14.7465 15.2457 15.3065C15.5303 15.3391 15.8165 15.3551 16.103 15.3545C17.1953 15.4034 18.2702 15.0682 19.1412 14.4073C19.7898 13.837 20.2369 13.0726 20.4162 12.2278C20.5906 10.8905 20.4774 9.53142 20.0843 8.24141C19.6912 6.95139 19.0272 5.76016 18.1367 4.74737C17.2463 3.73457 16.1499 2.92356 14.9208 2.36854C13.6917 1.81353 12.3583 1.52731 11.0097 1.52901Z" fill="#5881D8"/>
</svg>
