<svg width="14" height="14" viewBox="0 0 14 14" fill="none" xmlns="http://www.w3.org/2000/svg">
<path d="M6.41299 2.25732H2.20289C1.88386 2.25732 1.5779 2.38224 1.35232 2.60458C1.12673 2.82692 1 3.12848 1 3.44293V11.7421C1 12.0566 1.12673 12.3581 1.35232 12.5805C1.5779 12.8028 1.88386 12.9277 2.20289 12.9277H10.6231C10.9421 12.9277 11.2481 12.8028 11.4737 12.5805C11.6993 12.3581 11.826 12.0566 11.826 11.7421V7.59253" stroke="white" stroke-linecap="round" stroke-linejoin="round"/>
<path d="M10.9237 1.36831C11.163 1.13249 11.4875 1 11.8259 1C12.1643 1 12.4888 1.13249 12.7281 1.36831C12.9673 1.60414 13.1017 1.92399 13.1017 2.2575C13.1017 2.59101 12.9673 2.91085 12.7281 3.14668L7.0144 8.77818L4.60864 9.37097L5.21008 6.99981L10.9237 1.36831Z" stroke="white" stroke-linecap="round" stroke-linejoin="round"/>
</svg>
