<svg width="27" height="21" viewBox="0 0 27 21" fill="none" xmlns="http://www.w3.org/2000/svg">
<path d="M26.6471 2.49457C25.6672 2.90463 24.6008 3.19975 23.5023 3.31469C24.6428 2.65746 25.4968 1.61914 25.9041 0.394544C24.834 1.01209 23.6617 1.44513 22.4392 1.67444C21.9282 1.14455 21.3102 0.722408 20.6237 0.434331C19.9372 0.146254 19.1969 -0.00158988 18.449 1.28934e-05C15.4227 1.28934e-05 12.9889 2.37963 12.9889 5.29978C12.9889 5.70984 13.0401 6.1199 13.1234 6.51443C8.59202 6.28455 4.5506 4.18453 1.86379 0.969254C1.37423 1.78042 1.11768 2.70403 1.12084 3.64399C1.12084 5.48306 2.08476 7.10468 3.55465 8.05839C2.68842 8.02529 1.84247 7.79432 1.08561 7.38427V7.4495C1.08561 10.0248 2.96221 12.159 5.46328 12.6499C4.99368 12.7682 4.51059 12.8287 4.02541 12.83C3.66994 12.83 3.33369 12.7959 2.99424 12.7493C3.68595 14.8493 5.70026 16.3746 8.09885 16.4243C6.22225 17.8502 3.87169 18.689 1.31939 18.689C0.861443 18.689 0.438728 18.6734 0 18.6237C2.42101 20.1304 5.29355 21.0002 8.38706 21.0002C18.4298 21.0002 23.9251 12.9294 23.9251 5.92419C23.9251 5.69431 23.9251 5.46442 23.909 5.23454C24.9722 4.47965 25.9041 3.54458 26.6471 2.49457Z" fill="white"/>
</svg>
