<svg width="35" height="20" viewBox="0 0 35 20" fill="none" xmlns="http://www.w3.org/2000/svg">
<path fill-rule="evenodd" clip-rule="evenodd" d="M31.017 14.0196C31.017 14.0196 33.8343 16.813 34.5313 18.1056C34.5448 18.1243 34.5554 18.145 34.5626 18.1669C34.8466 18.6444 34.9163 19.0187 34.7769 19.2951C34.5417 19.7516 33.7455 19.9808 33.4754 20H28.4959C28.1491 20 27.4278 19.909 26.5497 19.3003C25.8789 18.8298 25.2116 18.0549 24.5652 17.2975C23.5999 16.1728 22.7654 15.1968 21.9203 15.1968C21.8136 15.1966 21.7076 15.2143 21.6067 15.2493C20.9673 15.4522 20.1554 16.367 20.1554 18.8036C20.1554 19.5662 19.556 20 19.1361 20H16.8554C16.0783 20 12.0326 19.7271 8.4452 15.9297C4.04932 11.2804 0.101212 1.95382 0.0628805 1.87161C-0.182787 1.26815 0.332941 0.939304 0.890484 0.939304H5.91883C6.59311 0.939304 6.81264 1.34861 6.96597 1.71593C7.14368 2.13748 7.80228 3.82368 8.88252 5.71803C10.6318 8.80007 11.7068 10.0542 12.5658 10.0542C12.7272 10.0547 12.8858 10.0125 13.0258 9.93178C14.1478 9.31258 13.9387 5.28949 13.8865 4.46038C13.8865 4.29946 13.8847 2.66398 13.3098 1.87336C12.8986 1.30663 12.1982 1.08623 11.7748 1.00577C11.888 0.84135 12.1285 0.58947 12.4369 0.44079C13.2052 0.0559732 14.5939 0 15.972 0H16.7369C18.2318 0.02099 18.6186 0.117194 19.1622 0.255379C20.2564 0.517754 20.2773 1.22967 20.1815 3.65402C20.1536 4.34669 20.124 5.12681 20.124 6.04513C20.124 6.24104 20.1153 6.45968 20.1153 6.68183C20.0822 7.92549 20.0386 9.32657 20.9133 9.90205C21.0267 9.97299 21.1577 10.0106 21.2914 10.0105C21.5945 10.0105 22.5023 10.0105 24.9642 5.76876C26.0444 3.8954 26.8807 1.6862 26.9382 1.52003C26.987 1.42732 27.1334 1.1667 27.3111 1.06175C27.4375 0.994219 27.5791 0.960487 27.7223 0.963793H33.6375C34.2821 0.963793 34.7194 1.06175 34.8048 1.30663C34.9477 1.70369 34.7769 2.91586 32.0763 6.58212C31.6216 7.19258 31.2226 7.72083 30.8724 8.18261C28.4244 11.4081 28.4244 11.5708 31.017 14.0196Z" fill="white"/>
</svg>
